<mxfile host="app.diagrams.net" agent="Mozilla/5.0 (Windows NT 10.0; Win64; x64) AppleWebKit/537.36 (KHTML, like Gecko) Chrome/133.0.0.0 Safari/537.36 Edg/133.0.0.0" version="26.0.16">
  <diagram id="C5RBs43oDa-KdzZeNtuy" name="Page-1">
    <mxGraphModel dx="2073" dy="1850" grid="1" gridSize="10" guides="1" tooltips="1" connect="1" arrows="1" fold="1" page="1" pageScale="1" pageWidth="827" pageHeight="1169" math="0" shadow="0">
      <root>
        <mxCell id="WIyWlLk6GJQsqaUBKTNV-0" />
        <mxCell id="WIyWlLk6GJQsqaUBKTNV-1" parent="WIyWlLk6GJQsqaUBKTNV-0" />
        <mxCell id="kXuh3LLKjrqsI1ZbqAcp-17" value="MEDICO" style="swimlane;childLayout=stackLayout;horizontal=1;startSize=50;horizontalStack=0;rounded=1;fontSize=14;fontStyle=0;strokeWidth=2;resizeParent=0;resizeLast=1;shadow=0;dashed=0;align=center;arcSize=4;whiteSpace=wrap;html=1;strokeColor=#EEEEEE;fontFamily=Helvetica;fontColor=default;labelBackgroundColor=default;fillColor=#56517E;" vertex="1" parent="WIyWlLk6GJQsqaUBKTNV-1">
          <mxGeometry x="-120" y="-550" width="160" height="120" as="geometry" />
        </mxCell>
        <mxCell id="kXuh3LLKjrqsI1ZbqAcp-18" value="COD, &lt;span style=&quot;background-color: light-dark(#ffffff, var(--ge-dark-color, #121212)); color: light-dark(rgb(0, 0, 0), rgb(255, 255, 255));&quot;&gt;NOME, ESPECIALIDADE, TELEFONE&lt;/span&gt;" style="text;strokeColor=none;fillColor=none;spacingLeft=4;spacingRight=4;overflow=hidden;rotatable=0;points=[[0,0.5],[1,0.5]];portConstraint=eastwest;fontSize=11;whiteSpace=wrap;html=1;fontFamily=Helvetica;fontColor=default;labelBackgroundColor=default;" vertex="1" parent="kXuh3LLKjrqsI1ZbqAcp-17">
          <mxGeometry y="50" width="160" height="70" as="geometry" />
        </mxCell>
        <mxCell id="kXuh3LLKjrqsI1ZbqAcp-22" value="HORA" style="ellipse;whiteSpace=wrap;html=1;align=center;labelBackgroundColor=none;fillColor=#d0cee2;strokeColor=#56517e;horizontal=1;fontSize=13;fontStyle=1;verticalAlign=middle;fontFamily=Courier New;direction=south;" vertex="1" parent="WIyWlLk6GJQsqaUBKTNV-1">
          <mxGeometry x="200.5" y="-42" width="47" height="29" as="geometry" />
        </mxCell>
        <mxCell id="kXuh3LLKjrqsI1ZbqAcp-23" style="edgeStyle=orthogonalEdgeStyle;shape=connector;rounded=0;jumpStyle=line;orthogonalLoop=1;jettySize=auto;html=1;shadow=1;strokeColor=#56517e;strokeWidth=2;align=center;verticalAlign=middle;fontFamily=Courier New;fontSize=13;fontColor=default;fontStyle=1;labelBackgroundColor=none;startFill=0;endArrow=none;flowAnimation=1;fillColor=#d0cee2;" edge="1" parent="WIyWlLk6GJQsqaUBKTNV-1" source="kXuh3LLKjrqsI1ZbqAcp-47" target="kXuh3LLKjrqsI1ZbqAcp-38">
          <mxGeometry relative="1" as="geometry" />
        </mxCell>
        <mxCell id="kXuh3LLKjrqsI1ZbqAcp-152" style="edgeStyle=orthogonalEdgeStyle;shape=connector;rounded=0;jumpStyle=line;orthogonalLoop=1;jettySize=auto;html=1;exitX=0.5;exitY=1;exitDx=0;exitDy=0;shadow=1;strokeColor=#56517e;strokeWidth=3;align=center;verticalAlign=middle;fontFamily=Courier New;fontSize=13;fontColor=default;fontStyle=1;labelBackgroundColor=none;startFill=0;endArrow=oval;endFill=0;flowAnimation=0;fillColor=#d0cee2;" edge="1" parent="WIyWlLk6GJQsqaUBKTNV-1" source="kXuh3LLKjrqsI1ZbqAcp-24" target="kXuh3LLKjrqsI1ZbqAcp-22">
          <mxGeometry relative="1" as="geometry" />
        </mxCell>
        <mxCell id="kXuh3LLKjrqsI1ZbqAcp-153" style="edgeStyle=orthogonalEdgeStyle;shape=connector;rounded=0;jumpStyle=line;orthogonalLoop=1;jettySize=auto;html=1;exitX=0.75;exitY=1;exitDx=0;exitDy=0;entryX=0;entryY=0;entryDx=0;entryDy=0;shadow=1;strokeColor=#56517e;strokeWidth=3;align=center;verticalAlign=middle;fontFamily=Courier New;fontSize=13;fontColor=default;fontStyle=1;labelBackgroundColor=none;startFill=0;endArrow=oval;endFill=0;flowAnimation=0;fillColor=#d0cee2;" edge="1" parent="WIyWlLk6GJQsqaUBKTNV-1" source="kXuh3LLKjrqsI1ZbqAcp-24" target="kXuh3LLKjrqsI1ZbqAcp-40">
          <mxGeometry relative="1" as="geometry" />
        </mxCell>
        <mxCell id="kXuh3LLKjrqsI1ZbqAcp-24" value="CONSULTAS" style="whiteSpace=wrap;html=1;align=center;labelBackgroundColor=none;fillColor=#d0cee2;strokeColor=#56517e;horizontal=1;fontSize=13;fontStyle=1;verticalAlign=middle;fontFamily=Courier New;" vertex="1" parent="WIyWlLk6GJQsqaUBKTNV-1">
          <mxGeometry x="165" y="-137" width="118" height="40" as="geometry" />
        </mxCell>
        <mxCell id="kXuh3LLKjrqsI1ZbqAcp-30" style="edgeStyle=orthogonalEdgeStyle;shape=connector;rounded=0;jumpStyle=line;orthogonalLoop=1;jettySize=auto;html=1;exitX=0.5;exitY=1;exitDx=0;exitDy=0;entryX=0.5;entryY=1;entryDx=0;entryDy=0;shadow=1;strokeColor=#56517e;strokeWidth=2;align=center;verticalAlign=middle;fontFamily=Courier New;fontSize=13;fontColor=default;labelBackgroundColor=none;startFill=0;endArrow=none;flowAnimation=1;horizontal=1;fontStyle=1;fillColor=#d0cee2;" edge="1" parent="WIyWlLk6GJQsqaUBKTNV-1" source="kXuh3LLKjrqsI1ZbqAcp-48" target="kXuh3LLKjrqsI1ZbqAcp-38">
          <mxGeometry relative="1" as="geometry" />
        </mxCell>
        <mxCell id="kXuh3LLKjrqsI1ZbqAcp-31" value="MÃ‰DICOS" style="whiteSpace=wrap;html=1;align=center;labelBackgroundColor=none;fillColor=#d0cee2;strokeColor=#56517e;horizontal=1;fontSize=13;fontStyle=1;verticalAlign=middle;fontFamily=Courier New;" vertex="1" parent="WIyWlLk6GJQsqaUBKTNV-1">
          <mxGeometry x="482" y="-390" width="107" height="100" as="geometry" />
        </mxCell>
        <mxCell id="kXuh3LLKjrqsI1ZbqAcp-32" style="edgeStyle=orthogonalEdgeStyle;shape=connector;rounded=0;jumpStyle=line;orthogonalLoop=1;jettySize=auto;html=1;shadow=1;strokeColor=#56517e;strokeWidth=2;align=center;verticalAlign=middle;fontFamily=Courier New;fontSize=13;fontColor=default;fontStyle=1;labelBackgroundColor=none;startFill=0;endArrow=none;flowAnimation=1;fillColor=#d0cee2;" edge="1" parent="WIyWlLk6GJQsqaUBKTNV-1" source="kXuh3LLKjrqsI1ZbqAcp-45" target="kXuh3LLKjrqsI1ZbqAcp-37">
          <mxGeometry relative="1" as="geometry" />
        </mxCell>
        <mxCell id="kXuh3LLKjrqsI1ZbqAcp-87" style="edgeStyle=orthogonalEdgeStyle;rounded=0;jumpStyle=line;orthogonalLoop=1;jettySize=auto;html=1;exitX=0;exitY=0;exitDx=0;exitDy=0;shadow=1;strokeColor=#56517e;strokeWidth=3;align=center;verticalAlign=middle;fontFamily=Courier New;fontSize=13;fontColor=default;fontStyle=1;labelBackgroundColor=none;startFill=0;endArrow=oval;flowAnimation=0;fillColor=#d0cee2;endFill=1;" edge="1" parent="WIyWlLk6GJQsqaUBKTNV-1" source="kXuh3LLKjrqsI1ZbqAcp-33">
          <mxGeometry relative="1" as="geometry">
            <mxPoint x="-210" y="-400" as="targetPoint" />
            <Array as="points">
              <mxPoint x="-180" y="-400" />
              <mxPoint x="-180" y="-400" />
            </Array>
          </mxGeometry>
        </mxCell>
        <mxCell id="kXuh3LLKjrqsI1ZbqAcp-98" value="COD" style="edgeLabel;html=1;align=center;verticalAlign=middle;resizable=0;points=[];fontFamily=Courier New;fontSize=13;fontColor=default;fontStyle=1;labelBackgroundColor=none;" vertex="1" connectable="0" parent="kXuh3LLKjrqsI1ZbqAcp-87">
          <mxGeometry x="1" y="4" relative="1" as="geometry">
            <mxPoint x="-30" y="-4" as="offset" />
          </mxGeometry>
        </mxCell>
        <mxCell id="kXuh3LLKjrqsI1ZbqAcp-127" style="edgeStyle=orthogonalEdgeStyle;shape=connector;rounded=0;jumpStyle=line;orthogonalLoop=1;jettySize=auto;html=1;exitX=0;exitY=1;exitDx=0;exitDy=0;shadow=1;strokeColor=#56517e;strokeWidth=3;align=center;verticalAlign=middle;fontFamily=Courier New;fontSize=13;fontColor=default;fontStyle=1;labelBackgroundColor=none;startFill=0;endArrow=oval;endFill=0;flowAnimation=0;fillColor=#d0cee2;" edge="1" parent="WIyWlLk6GJQsqaUBKTNV-1" source="kXuh3LLKjrqsI1ZbqAcp-33" target="kXuh3LLKjrqsI1ZbqAcp-114">
          <mxGeometry relative="1" as="geometry">
            <Array as="points">
              <mxPoint x="-110" y="-270" />
              <mxPoint x="-145" y="-270" />
              <mxPoint x="-145" y="-275" />
            </Array>
          </mxGeometry>
        </mxCell>
        <mxCell id="kXuh3LLKjrqsI1ZbqAcp-128" style="edgeStyle=orthogonalEdgeStyle;shape=connector;rounded=0;jumpStyle=line;orthogonalLoop=1;jettySize=auto;html=1;exitX=0.25;exitY=1;exitDx=0;exitDy=0;shadow=1;strokeColor=#56517e;strokeWidth=3;align=center;verticalAlign=middle;fontFamily=Courier New;fontSize=13;fontColor=default;fontStyle=1;labelBackgroundColor=none;startFill=0;endArrow=oval;endFill=0;flowAnimation=0;fillColor=#d0cee2;" edge="1" parent="WIyWlLk6GJQsqaUBKTNV-1" source="kXuh3LLKjrqsI1ZbqAcp-33" target="kXuh3LLKjrqsI1ZbqAcp-113">
          <mxGeometry relative="1" as="geometry" />
        </mxCell>
        <mxCell id="kXuh3LLKjrqsI1ZbqAcp-33" value="PACIENTES" style="whiteSpace=wrap;html=1;align=center;labelBackgroundColor=none;fillColor=#d0cee2;strokeColor=#56517e;horizontal=1;fontSize=13;fontStyle=1;verticalAlign=middle;fontFamily=Courier New;" vertex="1" parent="WIyWlLk6GJQsqaUBKTNV-1">
          <mxGeometry x="-110" y="-400" width="100" height="140" as="geometry" />
        </mxCell>
        <mxCell id="kXuh3LLKjrqsI1ZbqAcp-36" value="" style="edgeStyle=orthogonalEdgeStyle;shape=connector;rounded=0;jumpStyle=line;orthogonalLoop=1;jettySize=auto;html=1;shadow=1;strokeColor=#56517e;strokeWidth=2;align=center;verticalAlign=middle;fontFamily=Courier New;fontSize=13;fontColor=default;fontStyle=1;labelBackgroundColor=none;startFill=0;endArrow=none;flowAnimation=1;fillColor=#d0cee2;" edge="1" parent="WIyWlLk6GJQsqaUBKTNV-1" source="kXuh3LLKjrqsI1ZbqAcp-37" target="kXuh3LLKjrqsI1ZbqAcp-51">
          <mxGeometry relative="1" as="geometry" />
        </mxCell>
        <mxCell id="kXuh3LLKjrqsI1ZbqAcp-37" value="&lt;div&gt;&lt;font style=&quot;vertical-align: inherit;&quot;&gt;&lt;font style=&quot;vertical-align: inherit;&quot;&gt;TEM&lt;/font&gt;&lt;/font&gt;&lt;/div&gt;&lt;div&gt;&lt;font style=&quot;vertical-align: inherit;&quot;&gt;&lt;font style=&quot;vertical-align: inherit;&quot;&gt;contem&lt;/font&gt;&lt;/font&gt;&lt;/div&gt;" style="shape=rhombus;perimeter=rhombusPerimeter;whiteSpace=wrap;html=1;align=center;labelBackgroundColor=none;fillColor=#d0cee2;strokeColor=#56517e;horizontal=1;fontSize=13;fontStyle=1;verticalAlign=middle;fontFamily=Courier New;" vertex="1" parent="WIyWlLk6GJQsqaUBKTNV-1">
          <mxGeometry x="-114.5" y="-141.5" width="101" height="49" as="geometry" />
        </mxCell>
        <mxCell id="kXuh3LLKjrqsI1ZbqAcp-38" value="REALIZA" style="shape=rhombus;perimeter=rhombusPerimeter;whiteSpace=wrap;html=1;align=center;direction=west;labelBackgroundColor=none;fillColor=#d0cee2;strokeColor=#56517e;horizontal=1;fontSize=13;fontStyle=1;verticalAlign=middle;fontFamily=Courier New;" vertex="1" parent="WIyWlLk6GJQsqaUBKTNV-1">
          <mxGeometry x="490" y="-137" width="91" height="40" as="geometry" />
        </mxCell>
        <mxCell id="kXuh3LLKjrqsI1ZbqAcp-40" value="DATA" style="ellipse;whiteSpace=wrap;html=1;align=center;labelBackgroundColor=none;fillColor=#d0cee2;strokeColor=#56517e;horizontal=1;fontSize=13;fontStyle=1;verticalAlign=middle;fontFamily=Courier New;" vertex="1" parent="WIyWlLk6GJQsqaUBKTNV-1">
          <mxGeometry x="283" y="-73" width="73" height="28" as="geometry" />
        </mxCell>
        <mxCell id="kXuh3LLKjrqsI1ZbqAcp-41" value="STATUS" style="ellipse;whiteSpace=wrap;html=1;align=center;labelBackgroundColor=none;fillColor=#d0cee2;strokeColor=#56517e;horizontal=1;fontSize=13;fontStyle=1;verticalAlign=middle;fontFamily=Courier New;" vertex="1" parent="WIyWlLk6GJQsqaUBKTNV-1">
          <mxGeometry x="75" y="-70" width="119" height="25" as="geometry" />
        </mxCell>
        <mxCell id="kXuh3LLKjrqsI1ZbqAcp-44" value="" style="edgeStyle=orthogonalEdgeStyle;shape=connector;rounded=0;jumpStyle=line;orthogonalLoop=1;jettySize=auto;html=1;shadow=1;strokeColor=#56517e;strokeWidth=2;align=center;verticalAlign=middle;fontFamily=Courier New;fontSize=13;fontColor=default;fontStyle=1;labelBackgroundColor=none;startFill=0;endArrow=none;flowAnimation=1;fillColor=#d0cee2;" edge="1" parent="WIyWlLk6GJQsqaUBKTNV-1" source="kXuh3LLKjrqsI1ZbqAcp-33" target="kXuh3LLKjrqsI1ZbqAcp-45">
          <mxGeometry relative="1" as="geometry">
            <mxPoint x="-51" y="-260" as="sourcePoint" />
            <mxPoint x="-51" y="-149" as="targetPoint" />
          </mxGeometry>
        </mxCell>
        <mxCell id="kXuh3LLKjrqsI1ZbqAcp-45" value="(1,1)" style="text;html=1;align=center;verticalAlign=middle;resizable=0;points=[];autosize=1;strokeColor=#56517e;fillColor=#d0cee2;labelBorderColor=default;horizontal=1;fontSize=13;fontStyle=1;fontFamily=Courier New;labelBackgroundColor=none;" vertex="1" parent="WIyWlLk6GJQsqaUBKTNV-1">
          <mxGeometry x="-89" y="-218" width="60" height="30" as="geometry" />
        </mxCell>
        <mxCell id="kXuh3LLKjrqsI1ZbqAcp-46" value="" style="edgeStyle=orthogonalEdgeStyle;shape=connector;rounded=0;jumpStyle=line;orthogonalLoop=1;jettySize=auto;html=1;shadow=1;strokeColor=#56517e;strokeWidth=2;align=center;verticalAlign=middle;fontFamily=Courier New;fontSize=13;fontColor=default;fontStyle=1;labelBackgroundColor=none;startFill=0;endArrow=none;flowAnimation=1;fillColor=#d0cee2;" edge="1" parent="WIyWlLk6GJQsqaUBKTNV-1" source="kXuh3LLKjrqsI1ZbqAcp-24" target="kXuh3LLKjrqsI1ZbqAcp-47">
          <mxGeometry relative="1" as="geometry">
            <mxPoint x="278" y="-119" as="sourcePoint" />
            <mxPoint x="454" y="-119" as="targetPoint" />
          </mxGeometry>
        </mxCell>
        <mxCell id="kXuh3LLKjrqsI1ZbqAcp-47" value="(0,N)" style="text;html=1;align=center;verticalAlign=middle;resizable=0;points=[];autosize=1;strokeColor=#56517e;fillColor=#d0cee2;labelBorderColor=default;horizontal=1;fontSize=13;fontStyle=1;fontFamily=Courier New;labelBackgroundColor=none;" vertex="1" parent="WIyWlLk6GJQsqaUBKTNV-1">
          <mxGeometry x="359" y="-132" width="60" height="30" as="geometry" />
        </mxCell>
        <mxCell id="kXuh3LLKjrqsI1ZbqAcp-48" value="(1,1)" style="text;html=1;align=center;verticalAlign=middle;resizable=0;points=[];autosize=1;strokeColor=#56517e;fillColor=#d0cee2;labelBorderColor=default;horizontal=1;fontSize=13;fontStyle=1;fontFamily=Courier New;labelBackgroundColor=none;" vertex="1" parent="WIyWlLk6GJQsqaUBKTNV-1">
          <mxGeometry x="503" y="-217" width="57" height="28" as="geometry" />
        </mxCell>
        <mxCell id="kXuh3LLKjrqsI1ZbqAcp-49" style="edgeStyle=orthogonalEdgeStyle;shape=connector;rounded=0;jumpStyle=line;orthogonalLoop=1;jettySize=auto;html=1;exitX=0.5;exitY=1;exitDx=0;exitDy=0;entryX=0.576;entryY=0.124;entryDx=0;entryDy=0;entryPerimeter=0;shadow=1;strokeColor=#56517e;strokeWidth=2;align=center;verticalAlign=middle;fontFamily=Courier New;fontSize=13;fontColor=default;fontStyle=1;labelBackgroundColor=none;startFill=0;endArrow=none;flowAnimation=1;fillColor=#d0cee2;" edge="1" parent="WIyWlLk6GJQsqaUBKTNV-1" source="kXuh3LLKjrqsI1ZbqAcp-31" target="kXuh3LLKjrqsI1ZbqAcp-48">
          <mxGeometry relative="1" as="geometry" />
        </mxCell>
        <mxCell id="kXuh3LLKjrqsI1ZbqAcp-50" style="edgeStyle=orthogonalEdgeStyle;shape=connector;rounded=0;jumpStyle=line;orthogonalLoop=1;jettySize=auto;html=1;shadow=1;strokeColor=#56517e;strokeWidth=2;align=center;verticalAlign=middle;fontFamily=Courier New;fontSize=13;fontColor=default;fontStyle=1;labelBackgroundColor=none;startFill=0;endArrow=none;flowAnimation=1;fillColor=#d0cee2;" edge="1" parent="WIyWlLk6GJQsqaUBKTNV-1" source="kXuh3LLKjrqsI1ZbqAcp-51" target="kXuh3LLKjrqsI1ZbqAcp-24">
          <mxGeometry relative="1" as="geometry" />
        </mxCell>
        <mxCell id="kXuh3LLKjrqsI1ZbqAcp-51" value="(0,N)" style="text;html=1;align=center;verticalAlign=middle;resizable=0;points=[];autosize=1;strokeColor=#56517e;fillColor=#d0cee2;labelBorderColor=default;horizontal=1;fontSize=13;fontStyle=1;fontFamily=Courier New;labelBackgroundColor=none;" vertex="1" parent="WIyWlLk6GJQsqaUBKTNV-1">
          <mxGeometry x="49" y="-132" width="60" height="30" as="geometry" />
        </mxCell>
        <mxCell id="kXuh3LLKjrqsI1ZbqAcp-54" value="CONSULTA" style="swimlane;childLayout=stackLayout;horizontal=1;startSize=50;horizontalStack=0;rounded=1;fontSize=14;fontStyle=0;strokeWidth=2;resizeParent=0;resizeLast=1;shadow=0;dashed=0;align=center;arcSize=4;whiteSpace=wrap;html=1;strokeColor=#EEEEEE;fontFamily=Helvetica;fontColor=default;labelBackgroundColor=default;fillColor=#56517E;" vertex="1" parent="WIyWlLk6GJQsqaUBKTNV-1">
          <mxGeometry x="80" y="-550" width="240" height="120" as="geometry" />
        </mxCell>
        <mxCell id="kXuh3LLKjrqsI1ZbqAcp-55" value="HORA&lt;div&gt;DATA&lt;/div&gt;&lt;div&gt;STATUS: AGENDADA,REALIZADA,CANCELADA&lt;/div&gt;" style="text;strokeColor=none;fillColor=none;spacingLeft=4;spacingRight=4;overflow=hidden;rotatable=0;points=[[0,0.5],[1,0.5]];portConstraint=eastwest;fontSize=11;whiteSpace=wrap;html=1;fontFamily=Helvetica;fontColor=default;labelBackgroundColor=default;shadow=0;" vertex="1" parent="kXuh3LLKjrqsI1ZbqAcp-54">
          <mxGeometry y="50" width="240" height="70" as="geometry" />
        </mxCell>
        <mxCell id="kXuh3LLKjrqsI1ZbqAcp-56" value="ENDEREÃ‡O" style="text;strokeColor=none;fillColor=none;spacingLeft=4;spacingRight=4;overflow=hidden;rotatable=0;points=[[0,0.5],[1,0.5]];portConstraint=eastwest;fontSize=11;whiteSpace=wrap;html=1;fontFamily=Helvetica;fontColor=default;labelBackgroundColor=default;" vertex="1" parent="kXuh3LLKjrqsI1ZbqAcp-54">
          <mxGeometry y="120" width="240" as="geometry" />
        </mxCell>
        <mxCell id="kXuh3LLKjrqsI1ZbqAcp-58" value="PACIENTE" style="swimlane;childLayout=stackLayout;horizontal=1;startSize=50;horizontalStack=0;rounded=1;fontSize=14;fontStyle=0;strokeWidth=2;resizeParent=0;resizeLast=1;shadow=0;dashed=0;align=center;arcSize=4;whiteSpace=wrap;html=1;strokeColor=#EEEEEE;fontFamily=Helvetica;fontColor=default;labelBackgroundColor=default;fillColor=#56517E;" vertex="1" parent="WIyWlLk6GJQsqaUBKTNV-1">
          <mxGeometry x="360" y="-550" width="177" height="120" as="geometry" />
        </mxCell>
        <mxCell id="kXuh3LLKjrqsI1ZbqAcp-59" value="COD_NOME&lt;div&gt;DATA,&amp;nbsp;&lt;span style=&quot;background-color: light-dark(#ffffff, var(--ge-dark-color, #121212)); color: light-dark(rgb(0, 0, 0), rgb(255, 255, 255));&quot;&gt;NASC,TEL,&lt;/span&gt;&lt;/div&gt;&lt;div&gt;&lt;div&gt;END,CPF&lt;/div&gt;&lt;/div&gt;" style="shape=partialRectangle;connectable=0;fillColor=none;top=0;left=0;bottom=0;right=0;align=left;spacingLeft=6;overflow=hidden;whiteSpace=wrap;html=1;strokeColor=#EEEEEE;fontFamily=Helvetica;fontSize=11;fontColor=default;labelBackgroundColor=default;" vertex="1" parent="kXuh3LLKjrqsI1ZbqAcp-58">
          <mxGeometry y="50" width="177" height="70" as="geometry">
            <mxRectangle width="73.2352941176471" height="30" as="alternateBounds" />
          </mxGeometry>
        </mxCell>
        <mxCell id="kXuh3LLKjrqsI1ZbqAcp-95" value="NOME" style="text;html=1;align=center;verticalAlign=middle;resizable=0;points=[];autosize=1;strokeColor=none;fillColor=none;fontFamily=Courier New;fontSize=13;fontColor=default;fontStyle=1;labelBackgroundColor=none;" vertex="1" parent="WIyWlLk6GJQsqaUBKTNV-1">
          <mxGeometry x="-250" y="-390" width="50" height="30" as="geometry" />
        </mxCell>
        <mxCell id="kXuh3LLKjrqsI1ZbqAcp-99" value="ENDEREÃ‡O" style="text;html=1;align=center;verticalAlign=middle;resizable=0;points=[];autosize=1;strokeColor=none;fillColor=none;fontFamily=Courier New;fontSize=13;fontColor=default;fontStyle=1;labelBackgroundColor=none;" vertex="1" parent="WIyWlLk6GJQsqaUBKTNV-1">
          <mxGeometry x="-280" y="-320" width="90" height="30" as="geometry" />
        </mxCell>
        <mxCell id="kXuh3LLKjrqsI1ZbqAcp-113" value="CPF" style="text;html=1;align=center;verticalAlign=middle;resizable=0;points=[];autosize=1;strokeColor=none;fillColor=none;fontFamily=Courier New;fontSize=13;fontColor=default;fontStyle=1;labelBackgroundColor=none;" vertex="1" parent="WIyWlLk6GJQsqaUBKTNV-1">
          <mxGeometry x="-220" y="-260" width="50" height="30" as="geometry" />
        </mxCell>
        <mxCell id="kXuh3LLKjrqsI1ZbqAcp-114" value="TELEFONE" style="text;html=1;align=center;verticalAlign=middle;resizable=0;points=[];autosize=1;strokeColor=none;fillColor=none;fontFamily=Courier New;fontSize=13;fontColor=default;fontStyle=1;labelBackgroundColor=none;" vertex="1" parent="WIyWlLk6GJQsqaUBKTNV-1">
          <mxGeometry x="-270" y="-290" width="90" height="30" as="geometry" />
        </mxCell>
        <mxCell id="kXuh3LLKjrqsI1ZbqAcp-118" style="edgeStyle=orthogonalEdgeStyle;shape=connector;rounded=0;jumpStyle=line;orthogonalLoop=1;jettySize=auto;html=1;exitX=0;exitY=0.25;exitDx=0;exitDy=0;entryX=0.964;entryY=0.804;entryDx=0;entryDy=0;entryPerimeter=0;shadow=1;strokeColor=#56517e;strokeWidth=3;align=center;verticalAlign=middle;fontFamily=Courier New;fontSize=13;fontColor=default;fontStyle=1;labelBackgroundColor=none;startFill=0;endArrow=oval;endFill=0;flowAnimation=0;fillColor=#d0cee2;" edge="1" parent="WIyWlLk6GJQsqaUBKTNV-1" source="kXuh3LLKjrqsI1ZbqAcp-33" target="kXuh3LLKjrqsI1ZbqAcp-95">
          <mxGeometry relative="1" as="geometry" />
        </mxCell>
        <mxCell id="kXuh3LLKjrqsI1ZbqAcp-120" value="DATA DE NASCIMENTO" style="text;html=1;align=center;verticalAlign=middle;resizable=0;points=[];autosize=1;strokeColor=none;fillColor=none;fontFamily=Courier New;fontSize=13;fontColor=default;fontStyle=1;labelBackgroundColor=none;" vertex="1" parent="WIyWlLk6GJQsqaUBKTNV-1">
          <mxGeometry x="-350" y="-352" width="160" height="30" as="geometry" />
        </mxCell>
        <mxCell id="kXuh3LLKjrqsI1ZbqAcp-123" style="edgeStyle=orthogonalEdgeStyle;shape=connector;rounded=0;jumpStyle=line;orthogonalLoop=1;jettySize=auto;html=1;entryX=0.989;entryY=0.518;entryDx=0;entryDy=0;entryPerimeter=0;shadow=1;strokeColor=#56517e;strokeWidth=3;align=center;verticalAlign=middle;fontFamily=Courier New;fontSize=13;fontColor=default;fontStyle=1;labelBackgroundColor=none;startFill=0;endArrow=oval;endFill=0;flowAnimation=0;fillColor=#d0cee2;" edge="1" parent="WIyWlLk6GJQsqaUBKTNV-1" source="kXuh3LLKjrqsI1ZbqAcp-33" target="kXuh3LLKjrqsI1ZbqAcp-120">
          <mxGeometry relative="1" as="geometry" />
        </mxCell>
        <mxCell id="kXuh3LLKjrqsI1ZbqAcp-124" style="edgeStyle=orthogonalEdgeStyle;shape=connector;rounded=0;jumpStyle=line;orthogonalLoop=1;jettySize=auto;html=1;exitX=0;exitY=0.75;exitDx=0;exitDy=0;entryX=0.954;entryY=0.51;entryDx=0;entryDy=0;entryPerimeter=0;shadow=1;strokeColor=#56517e;strokeWidth=3;align=center;verticalAlign=middle;fontFamily=Courier New;fontSize=13;fontColor=default;fontStyle=1;labelBackgroundColor=none;startFill=0;endArrow=oval;endFill=0;flowAnimation=0;fillColor=#d0cee2;" edge="1" parent="WIyWlLk6GJQsqaUBKTNV-1" source="kXuh3LLKjrqsI1ZbqAcp-33" target="kXuh3LLKjrqsI1ZbqAcp-99">
          <mxGeometry relative="1" as="geometry" />
        </mxCell>
        <mxCell id="kXuh3LLKjrqsI1ZbqAcp-140" value="CODIGO" style="text;html=1;align=center;verticalAlign=middle;resizable=0;points=[];autosize=1;strokeColor=none;fillColor=none;fontFamily=Courier New;fontSize=13;fontColor=default;fontStyle=1;labelBackgroundColor=none;" vertex="1" parent="WIyWlLk6GJQsqaUBKTNV-1">
          <mxGeometry x="660" y="-420" width="70" height="30" as="geometry" />
        </mxCell>
        <mxCell id="kXuh3LLKjrqsI1ZbqAcp-142" style="edgeStyle=orthogonalEdgeStyle;shape=connector;rounded=0;jumpStyle=line;orthogonalLoop=1;jettySize=auto;html=1;exitX=1;exitY=0;exitDx=0;exitDy=0;entryX=0.002;entryY=0.194;entryDx=0;entryDy=0;entryPerimeter=0;shadow=1;strokeColor=#56517e;strokeWidth=3;align=center;verticalAlign=middle;fontFamily=Courier New;fontSize=13;fontColor=default;fontStyle=1;labelBackgroundColor=none;startFill=0;endArrow=oval;endFill=1;flowAnimation=0;fillColor=#d0cee2;" edge="1" parent="WIyWlLk6GJQsqaUBKTNV-1" source="kXuh3LLKjrqsI1ZbqAcp-31" target="kXuh3LLKjrqsI1ZbqAcp-140">
          <mxGeometry relative="1" as="geometry" />
        </mxCell>
        <mxCell id="kXuh3LLKjrqsI1ZbqAcp-143" value="NOME" style="text;html=1;align=center;verticalAlign=middle;resizable=0;points=[];autosize=1;strokeColor=none;fillColor=none;fontFamily=Courier New;fontSize=13;fontColor=default;fontStyle=1;labelBackgroundColor=none;" vertex="1" parent="WIyWlLk6GJQsqaUBKTNV-1">
          <mxGeometry x="650" y="-385" width="50" height="30" as="geometry" />
        </mxCell>
        <mxCell id="kXuh3LLKjrqsI1ZbqAcp-145" style="edgeStyle=orthogonalEdgeStyle;shape=connector;rounded=0;jumpStyle=line;orthogonalLoop=1;jettySize=auto;html=1;exitX=1;exitY=0.25;exitDx=0;exitDy=0;entryX=-0.063;entryY=0.628;entryDx=0;entryDy=0;entryPerimeter=0;shadow=1;strokeColor=#56517e;strokeWidth=3;align=center;verticalAlign=middle;fontFamily=Courier New;fontSize=13;fontColor=default;fontStyle=1;labelBackgroundColor=none;startFill=0;endArrow=oval;endFill=0;flowAnimation=0;fillColor=#d0cee2;" edge="1" parent="WIyWlLk6GJQsqaUBKTNV-1" source="kXuh3LLKjrqsI1ZbqAcp-31" target="kXuh3LLKjrqsI1ZbqAcp-143">
          <mxGeometry relative="1" as="geometry" />
        </mxCell>
        <mxCell id="kXuh3LLKjrqsI1ZbqAcp-146" value="ESPECIALIDADE" style="text;html=1;align=center;verticalAlign=middle;resizable=0;points=[];autosize=1;strokeColor=none;fillColor=none;fontFamily=Courier New;fontSize=13;fontColor=default;fontStyle=1;labelBackgroundColor=none;" vertex="1" parent="WIyWlLk6GJQsqaUBKTNV-1">
          <mxGeometry x="645" y="-355" width="120" height="30" as="geometry" />
        </mxCell>
        <mxCell id="kXuh3LLKjrqsI1ZbqAcp-147" style="edgeStyle=orthogonalEdgeStyle;shape=connector;rounded=0;jumpStyle=line;orthogonalLoop=1;jettySize=auto;html=1;exitX=1;exitY=0.5;exitDx=0;exitDy=0;entryX=-0.012;entryY=0.489;entryDx=0;entryDy=0;entryPerimeter=0;shadow=1;strokeColor=#56517e;strokeWidth=3;align=center;verticalAlign=middle;fontFamily=Courier New;fontSize=13;fontColor=default;fontStyle=1;labelBackgroundColor=none;startFill=0;endArrow=oval;endFill=0;flowAnimation=0;fillColor=#d0cee2;" edge="1" parent="WIyWlLk6GJQsqaUBKTNV-1" source="kXuh3LLKjrqsI1ZbqAcp-31" target="kXuh3LLKjrqsI1ZbqAcp-146">
          <mxGeometry relative="1" as="geometry" />
        </mxCell>
        <mxCell id="kXuh3LLKjrqsI1ZbqAcp-148" value="TELEFONE" style="text;html=1;align=center;verticalAlign=middle;resizable=0;points=[];autosize=1;strokeColor=none;fillColor=none;fontFamily=Courier New;fontSize=13;fontColor=default;fontStyle=1;labelBackgroundColor=none;" vertex="1" parent="WIyWlLk6GJQsqaUBKTNV-1">
          <mxGeometry x="645" y="-310" width="90" height="30" as="geometry" />
        </mxCell>
        <mxCell id="kXuh3LLKjrqsI1ZbqAcp-149" style="edgeStyle=orthogonalEdgeStyle;shape=connector;rounded=0;jumpStyle=line;orthogonalLoop=1;jettySize=auto;html=1;exitX=1;exitY=0.75;exitDx=0;exitDy=0;entryX=0.011;entryY=0.583;entryDx=0;entryDy=0;entryPerimeter=0;shadow=1;strokeColor=#56517e;strokeWidth=3;align=center;verticalAlign=middle;fontFamily=Courier New;fontSize=13;fontColor=default;fontStyle=1;labelBackgroundColor=none;startFill=0;endArrow=oval;endFill=0;flowAnimation=0;fillColor=#d0cee2;" edge="1" parent="WIyWlLk6GJQsqaUBKTNV-1" source="kXuh3LLKjrqsI1ZbqAcp-31" target="kXuh3LLKjrqsI1ZbqAcp-148">
          <mxGeometry relative="1" as="geometry" />
        </mxCell>
        <mxCell id="kXuh3LLKjrqsI1ZbqAcp-151" style="edgeStyle=orthogonalEdgeStyle;shape=connector;rounded=0;jumpStyle=line;orthogonalLoop=1;jettySize=auto;html=1;exitX=0.25;exitY=1;exitDx=0;exitDy=0;entryX=0.674;entryY=0.139;entryDx=0;entryDy=0;entryPerimeter=0;shadow=1;strokeColor=#56517e;strokeWidth=3;align=center;verticalAlign=middle;fontFamily=Courier New;fontSize=13;fontColor=default;fontStyle=1;labelBackgroundColor=none;startFill=0;endArrow=oval;endFill=0;flowAnimation=0;fillColor=#d0cee2;" edge="1" parent="WIyWlLk6GJQsqaUBKTNV-1" source="kXuh3LLKjrqsI1ZbqAcp-24" target="kXuh3LLKjrqsI1ZbqAcp-41">
          <mxGeometry relative="1" as="geometry" />
        </mxCell>
        <mxCell id="kXuh3LLKjrqsI1ZbqAcp-197" value="MÃ©dicos(med_codigo,med_nome,med_especialidade)&lt;div&gt;consultas(cons_codigo,cons_status,med_consulta)&lt;/div&gt;&lt;div&gt;pacientes(pac_codigo,pac_endereÃ§o)&lt;/div&gt;" style="text;html=1;align=center;verticalAlign=middle;resizable=0;points=[];autosize=1;strokeColor=none;fillColor=none;fontFamily=Courier New;fontSize=13;fontColor=default;fontStyle=1;labelBackgroundColor=none;" vertex="1" parent="WIyWlLk6GJQsqaUBKTNV-1">
          <mxGeometry x="-276" width="390" height="60" as="geometry" />
        </mxCell>
      </root>
    </mxGraphModel>
  </diagram>
</mxfile>
